<svg width="24" height="24" viewBox="0 0 24 24" fill="none" xmlns="http://www.w3.org/2000/svg">
<path d="M15.9158 7.5436C15.7953 7.49046 15.6656 7.46162 15.534 7.45875L8.46289 7.45875C8.33104 7.45875 8.20047 7.48472 8.07865 7.53518C7.95682 7.58564 7.84613 7.6596 7.75289 7.75284C7.56459 7.94115 7.4588 8.19654 7.4588 8.46284C7.4588 8.5947 7.48477 8.72527 7.53523 8.84709C7.5857 8.96891 7.65966 9.0796 7.75289 9.17284C7.9412 9.36115 8.19659 9.46693 8.46289 9.46693L13.1227 9.45986L7.75579 14.8268C7.56825 15.0143 7.46289 15.2687 7.46289 15.5339C7.46289 15.7991 7.56825 16.0535 7.75579 16.241C7.94332 16.4286 8.19768 16.5339 8.46289 16.5339C8.72811 16.5339 8.98246 16.4286 9.17 16.241L14.5369 10.8741L14.5299 15.5339C14.5293 15.6659 14.5549 15.7967 14.6052 15.9188C14.6555 16.0409 14.7294 16.1518 14.8228 16.2451C14.9161 16.3385 15.027 16.4124 15.1491 16.4627C15.2711 16.5129 15.402 16.5385 15.534 16.538C15.666 16.5385 15.7968 16.5129 15.9189 16.4627C16.0409 16.4124 16.1518 16.3385 16.2452 16.2451C16.3385 16.1518 16.4125 16.0409 16.4627 15.9188C16.513 15.7967 16.5386 15.6659 16.5381 15.5339L16.5381 8.46284C16.5352 8.33122 16.5063 8.20146 16.4532 8.08101C16.3518 7.83813 16.1587 7.64503 15.9158 7.5436Z" fill="black"/>
</svg>
