<svg width="24" height="24" viewBox="0 0 24 24" fill="none" xmlns="http://www.w3.org/2000/svg">
<path d="M16.2429 6.34315L12.0002 10.5858L7.75759 6.34315C7.57005 6.15561 7.3157 6.05025 7.05048 6.05025C6.78527 6.05025 6.53091 6.15561 6.34338 6.34315C6.15584 6.53068 6.05048 6.78504 6.05048 7.05025C6.05048 7.31547 6.15584 7.56982 6.34338 7.75736L10.586 12L6.34338 16.2426C6.15584 16.4302 6.05048 16.6845 6.05048 16.9497C6.05048 17.215 6.15584 17.4693 6.34338 17.6569C6.53091 17.8444 6.78527 17.9497 7.05048 17.9497C7.3157 17.9497 7.57005 17.8444 7.75759 17.6569L12.0002 13.4142L16.2429 17.6569C16.4304 17.8444 16.6848 17.9497 16.95 17.9497C17.2152 17.9497 17.4695 17.8444 17.6571 17.6569C17.8446 17.4693 17.95 17.215 17.95 16.9497C17.95 16.6845 17.8446 16.4302 17.6571 16.2426L13.4144 12L17.6571 7.75736C17.8446 7.56982 17.95 7.31547 17.95 7.05025C17.95 6.78504 17.8446 6.53068 17.6571 6.34315C17.4695 6.15561 17.2152 6.05025 16.95 6.05025C16.6848 6.05025 16.4304 6.15561 16.2429 6.34315Z" fill="black"/>
</svg>
