<svg width="24" height="24" viewBox="0 0 24 24" fill="none" xmlns="http://www.w3.org/2000/svg">
<path d="M21.7104 20.2901L18.0004 16.6101C19.4405 14.8146 20.1379 12.5354 19.9492 10.2414C19.7605 7.94745 18.7001 5.81293 16.9859 4.27679C15.2718 2.74065 13.0342 1.91966 10.7333 1.98262C8.43243 2.04558 6.24311 2.98771 4.61553 4.61529C2.98795 6.24287 2.04582 8.43219 1.98286 10.7331C1.9199 13.034 2.7409 15.2715 4.27704 16.9857C5.81318 18.6998 7.94769 19.7603 10.2417 19.949C12.5357 20.1377 14.8148 19.4402 16.6104 18.0001L20.2904 21.6801C20.3834 21.7739 20.494 21.8483 20.6158 21.899C20.7377 21.9498 20.8684 21.9759 21.0004 21.9759C21.1324 21.9759 21.2631 21.9498 21.385 21.899C21.5068 21.8483 21.6174 21.7739 21.7104 21.6801C21.8906 21.4937 21.9914 21.2445 21.9914 20.9851C21.9914 20.7258 21.8906 20.4766 21.7104 20.2901ZM11.0004 18.0001C9.61592 18.0001 8.26255 17.5896 7.1114 16.8204C5.96026 16.0513 5.06305 14.958 4.53324 13.6789C4.00342 12.3999 3.8648 10.9924 4.1349 9.63452C4.40499 8.27665 5.07168 7.02937 6.05065 6.0504C7.02961 5.07143 8.27689 4.40475 9.63476 4.13465C10.9926 3.86455 12.4001 4.00318 13.6792 4.53299C14.9583 5.06281 16.0515 5.96001 16.8207 7.11116C17.5899 8.2623 18.0004 9.61568 18.0004 11.0001C18.0004 12.8567 17.2629 14.6371 15.9501 15.9499C14.6374 17.2627 12.8569 18.0001 11.0004 18.0001Z" fill="black"/>
</svg>
