<svg width="181" height="29" viewBox="0 0 181 29" fill="none" xmlns="http://www.w3.org/2000/svg">
<path d="M65.628 22V5.94H68.004L73.24 13.2L78.652 5.94H80.918V22H78.564V9.702L73.196 16.918L68.004 9.856V22H65.628ZM88.5527 22.242C85.4067 22.242 83.6467 20.262 83.6467 16.984V10.12H86.0667V16.83C86.0667 18.832 87.0787 20.13 89.0807 20.13C90.8627 20.13 92.2267 18.788 92.2267 16.676V10.12H94.6027V22H92.2707V20.372C91.4567 21.516 90.1367 22.242 88.5527 22.242ZM101.623 22.242C99.1148 22.242 97.3988 21.34 96.3868 19.624L98.5208 18.414C99.2468 19.536 100.259 20.174 101.733 20.174C103.273 20.174 104.087 19.404 104.087 18.502C104.087 17.468 102.635 17.226 101.073 16.896C99.0708 16.478 96.9368 15.818 96.9368 13.398C96.9368 11.55 98.7188 9.834 101.513 9.856C103.735 9.856 105.253 10.67 106.287 12.078L104.241 13.244C103.647 12.364 102.789 11.836 101.513 11.836C100.061 11.836 99.3568 12.518 99.3568 13.354C99.3568 14.3 100.435 14.52 102.239 14.916C104.219 15.334 106.463 16.016 106.463 18.48C106.463 20.218 104.901 22.264 101.623 22.242ZM108.612 22V10.12H111.01V22H108.612ZM108.128 6.556C108.128 5.588 108.832 4.862 109.8 4.862C110.79 4.862 111.494 5.588 111.494 6.556C111.494 7.524 110.79 8.25 109.8 8.25C108.81 8.25 108.128 7.524 108.128 6.556ZM119.533 22.242C115.991 22.242 113.307 19.492 113.307 16.06C113.307 12.562 116.035 9.878 119.511 9.878C122.129 9.878 124.241 11.374 125.143 13.508L123.009 14.432C122.393 12.98 121.117 12.1 119.511 12.1C117.289 12.1 115.639 13.86 115.639 16.06C115.639 18.238 117.333 20.02 119.555 20.02C121.249 20.02 122.481 18.964 123.053 17.6L125.209 18.502C124.263 20.702 122.283 22.242 119.533 22.242ZM127.589 22V5.94H133.837C137.335 5.94 139.601 8.206 139.601 11.308C139.601 13.31 138.479 15.224 136.499 16.06L139.909 22H137.181L134.277 16.698H129.965V22H127.589ZM133.639 8.162H129.965V14.498H133.639C136.081 14.498 137.203 12.936 137.203 11.242C137.203 9.416 135.993 8.162 133.639 8.162ZM145.416 22.242C142.666 22.242 141.214 20.724 141.214 18.722C141.214 16.28 143.238 14.784 146.56 14.784H150.08V14.586C150.08 13.002 149.112 11.902 147 11.902C145.438 11.902 144.272 12.65 143.59 13.816L141.478 12.584C142.644 11.022 144.47 9.878 147.022 9.878C150.432 9.878 152.368 11.77 152.368 14.652V22H150.08V19.91C149.134 21.318 147.396 22.242 145.416 22.242ZM145.922 20.174C147.616 20.174 149.31 19.228 150.08 17.666V16.676H146.714C144.514 16.676 143.634 17.358 143.634 18.524C143.634 19.558 144.338 20.174 145.922 20.174ZM155.061 22V10.12H157.393V11.77C158.207 10.626 159.527 9.878 161.177 9.878C164.191 9.878 166.061 11.858 166.061 15.114V22H163.663V15.29C163.663 13.266 162.607 11.968 160.627 11.968C158.823 11.968 157.437 13.31 157.437 15.444V22H155.061ZM177.019 22L173.235 16.61L171.101 18.92V22H168.747V4.664H171.101V16.192L176.645 10.12H179.549L174.951 15.114L179.813 22H177.019Z" fill="black"/>
<rect y="1" width="16" height="16" rx="2" fill="#DFE9F1"/>
<rect x="18" y="1" width="16" height="27" rx="2" fill="#F5EDEA"/>
<rect x="36" y="1" width="16" height="21" rx="2" fill="#F5F2EA"/>
</svg>
