<svg width="124" height="20" viewBox="0 0 124 20" fill="none" xmlns="http://www.w3.org/2000/svg">
<path d="M44.7197 15V4.05633H46.3388L49.9067 9.00347L53.5946 4.05633H55.1387V15H53.5346V6.61984L49.8767 11.537L46.3388 6.72478V15H44.7197ZM60.3411 15.1649C58.1974 15.1649 56.9981 13.8157 56.9981 11.582V6.90468H58.6471V11.477C58.6471 12.8412 59.3367 13.7257 60.7009 13.7257C61.9152 13.7257 62.8447 12.8113 62.8447 11.3721V6.90468H64.4638V15H62.8747V13.8906C62.32 14.6702 61.4205 15.1649 60.3411 15.1649ZM69.2474 15.1649C67.5384 15.1649 66.3691 14.5503 65.6795 13.3809L67.1336 12.5564C67.6283 13.321 68.3179 13.7557 69.3224 13.7557C70.3718 13.7557 70.9264 13.231 70.9264 12.6164C70.9264 11.9118 69.937 11.7469 68.8726 11.522C67.5084 11.2372 66.0543 10.7874 66.0543 9.13839C66.0543 7.87912 67.2686 6.70979 69.1725 6.72478C70.6866 6.72478 71.721 7.27946 72.4256 8.23891L71.0314 9.03345C70.6266 8.4338 70.0419 8.074 69.1725 8.074C68.183 8.074 67.7033 8.53873 67.7033 9.10841C67.7033 9.75303 68.4379 9.90295 69.6672 10.1728C71.0164 10.4576 72.5455 10.9224 72.5455 12.6014C72.5455 13.7857 71.4811 15.1799 69.2474 15.1649ZM74.0101 15V6.90468H75.6441V15H74.0101ZM73.6803 4.47608C73.6803 3.81646 74.16 3.32175 74.8196 3.32175C75.4942 3.32175 75.9739 3.81646 75.9739 4.47608C75.9739 5.1357 75.4942 5.63042 74.8196 5.63042C74.145 5.63042 73.6803 5.1357 73.6803 4.47608ZM81.4518 15.1649C79.0382 15.1649 77.2092 13.291 77.2092 10.9523C77.2092 8.56872 79.0681 6.73978 81.4368 6.73978C83.2207 6.73978 84.6599 7.75919 85.2745 9.21334L83.8204 9.84298C83.4006 8.85355 82.5311 8.2539 81.4368 8.2539C79.9226 8.2539 78.7983 9.45321 78.7983 10.9523C78.7983 12.4365 79.9526 13.6508 81.4667 13.6508C82.6211 13.6508 83.4606 12.9312 83.8504 12.0017L85.3195 12.6164C84.6749 14.1155 83.3257 15.1649 81.4518 15.1649ZM86.9414 15V4.05633H91.1989C93.5826 4.05633 95.1267 5.60043 95.1267 7.71421C95.1267 9.07842 94.3621 10.3827 93.0129 10.9523L95.3365 15H93.4776L91.4988 11.3871H88.5605V15H86.9414ZM91.064 5.57045H88.5605V9.88795H91.064C92.7281 9.88795 93.4926 8.82357 93.4926 7.66924C93.4926 6.42496 92.6681 5.57045 91.064 5.57045ZM99.0892 15.1649C97.2153 15.1649 96.2258 14.1305 96.2258 12.7663C96.2258 11.1023 97.605 10.0828 99.8687 10.0828H102.267V9.94792C102.267 8.86854 101.608 8.11898 100.169 8.11898C99.1042 8.11898 98.3096 8.62868 97.8449 9.42322L96.4057 8.58371C97.2003 7.51932 98.4446 6.73978 100.184 6.73978C102.507 6.73978 103.826 8.02903 103.826 9.99289V15H102.267V13.5758C101.623 14.5353 100.438 15.1649 99.0892 15.1649ZM99.434 13.7557C100.588 13.7557 101.743 13.1111 102.267 12.0467V11.3721H99.9737C98.4745 11.3721 97.8749 11.8368 97.8749 12.6314C97.8749 13.336 98.3546 13.7557 99.434 13.7557ZM105.662 15V6.90468H107.251V8.02903C107.805 7.24948 108.705 6.73978 109.829 6.73978C111.883 6.73978 113.157 8.08899 113.157 10.3077V15H111.523V10.4276C111.523 9.04844 110.804 8.16395 109.455 8.16395C108.225 8.16395 107.281 9.07842 107.281 10.5326V15H105.662ZM120.624 15L118.046 11.3271L116.591 12.9012V15H114.987V3.18683H116.591V11.0423L120.369 6.90468H122.348L119.215 10.3077L122.528 15H120.624Z" fill="black"/>
<rect y="0.682129" width="10.9028" height="10.9028" rx="1.36285" fill="black"/>
<rect x="12.2666" y="0.681152" width="10.9028" height="18.3985" rx="1.36285" fill="black"/>
<rect x="24.5322" y="0.681152" width="10.9028" height="14.3099" rx="1.36285" fill="black"/>
</svg>
